<svg width="168" height="38" viewBox="0 0 168 38" fill="none" xmlns="http://www.w3.org/2000/svg">
<path d="M26.6731 33V19H30.0731V33H26.6731ZM28.2531 27.64V24.8H35.4931V27.64H28.2531ZM28.2531 22V19H36.3131V22H28.2531ZM42.0234 33.22C41.2367 33.22 40.5634 33.0533 40.0034 32.72C39.4567 32.3733 39.0301 31.88 38.7234 31.24C38.4301 30.6 38.2834 29.8333 38.2834 28.94V22.38H41.5034V28.5C41.5034 28.9267 41.5701 29.2933 41.7034 29.6C41.8367 29.9067 42.0367 30.1467 42.3034 30.32C42.5701 30.48 42.8901 30.56 43.2634 30.56C43.5434 30.56 43.7967 30.5133 44.0234 30.42C44.2634 30.3267 44.4634 30.2 44.6234 30.04C44.7967 29.8667 44.9301 29.6733 45.0234 29.46C45.1167 29.2333 45.1634 28.9867 45.1634 28.72V22.38H48.3834V33H45.3634L45.2234 30.82L45.8234 30.58C45.6634 31.0867 45.3967 31.54 45.0234 31.94C44.6501 32.3267 44.2034 32.64 43.6834 32.88C43.1634 33.1067 42.6101 33.22 42.0234 33.22ZM52.1154 33V19.7H55.3154V33H52.1154ZM50.2354 25.18V22.38H57.3754V25.18H50.2354ZM62.8242 33.22C62.0375 33.22 61.3642 33.0533 60.8042 32.72C60.2575 32.3733 59.8308 31.88 59.5242 31.24C59.2308 30.6 59.0842 29.8333 59.0842 28.94V22.38H62.3042V28.5C62.3042 28.9267 62.3708 29.2933 62.5042 29.6C62.6375 29.9067 62.8375 30.1467 63.1042 30.32C63.3708 30.48 63.6908 30.56 64.0642 30.56C64.3442 30.56 64.5975 30.5133 64.8242 30.42C65.0642 30.3267 65.2642 30.2 65.4242 30.04C65.5975 29.8667 65.7308 29.6733 65.8242 29.46C65.9175 29.2333 65.9642 28.9867 65.9642 28.72V22.38H69.1842V33H66.1642L66.0242 30.82L66.6242 30.58C66.4642 31.0867 66.1975 31.54 65.8242 31.94C65.4508 32.3267 65.0042 32.64 64.4842 32.88C63.9642 33.1067 63.4108 33.22 62.8242 33.22ZM72.0362 33V22.38H75.0762L75.2162 25.84L74.6162 25.18C74.7762 24.6067 75.0362 24.0933 75.3962 23.64C75.7695 23.1867 76.2029 22.8267 76.6962 22.56C77.1895 22.2933 77.7162 22.16 78.2762 22.16C78.5162 22.16 78.7362 22.18 78.9362 22.22C79.1495 22.26 79.3429 22.3067 79.5162 22.36L78.6362 25.9C78.4895 25.8067 78.2895 25.7333 78.0362 25.68C77.7962 25.6133 77.5429 25.58 77.2762 25.58C76.9829 25.58 76.7095 25.6333 76.4562 25.74C76.2029 25.8333 75.9895 25.9733 75.8162 26.16C75.6429 26.3467 75.5029 26.5667 75.3962 26.82C75.3029 27.0733 75.2562 27.36 75.2562 27.68V33H72.0362ZM85.7485 33.2C84.5752 33.2 83.5552 32.9667 82.6885 32.5C81.8219 32.02 81.1485 31.3733 80.6685 30.56C80.1885 29.7333 79.9485 28.7933 79.9485 27.74C79.9485 26.9267 80.0819 26.18 80.3485 25.5C80.6152 24.82 80.9885 24.2333 81.4685 23.74C81.9485 23.2333 82.5152 22.8467 83.1685 22.58C83.8352 22.3 84.5619 22.16 85.3485 22.16C86.0952 22.16 86.7752 22.2933 87.3885 22.56C88.0152 22.8267 88.5552 23.2 89.0085 23.68C89.4619 24.16 89.8085 24.7267 90.0485 25.38C90.2885 26.0333 90.3952 26.7467 90.3685 27.52L90.3485 28.38H81.8885L81.4285 26.58H87.7485L87.4085 26.96V26.56C87.3819 26.2267 87.2752 25.9333 87.0885 25.68C86.9152 25.4133 86.6819 25.2067 86.3885 25.06C86.0952 24.9133 85.7619 24.84 85.3885 24.84C84.8685 24.84 84.4219 24.9467 84.0485 25.16C83.6885 25.36 83.4152 25.66 83.2285 26.06C83.0419 26.4467 82.9485 26.9267 82.9485 27.5C82.9485 28.0867 83.0685 28.6 83.3085 29.04C83.5619 29.4667 83.9219 29.8 84.3885 30.04C84.8685 30.28 85.4352 30.4 86.0885 30.4C86.5419 30.4 86.9419 30.3333 87.2885 30.2C87.6485 30.0667 88.0352 29.84 88.4485 29.52L89.9485 31.64C89.5352 32 89.0952 32.2933 88.6285 32.52C88.1619 32.7467 87.6819 32.9133 87.1885 33.02C86.7085 33.14 86.2285 33.2 85.7485 33.2ZM99.1535 33V19H105.334C106.294 19 107.107 19.14 107.774 19.42C108.44 19.6867 108.94 20.08 109.274 20.6C109.62 21.1067 109.794 21.72 109.794 22.44C109.794 23.24 109.594 23.9133 109.194 24.46C108.807 25.0067 108.24 25.3733 107.494 25.56L107.454 25.18C108.08 25.3133 108.62 25.5467 109.074 25.88C109.54 26.2133 109.9 26.6267 110.154 27.12C110.407 27.6 110.534 28.1467 110.534 28.76C110.534 29.4667 110.414 30.0867 110.174 30.62C109.934 31.14 109.587 31.58 109.134 31.94C108.68 32.3 108.147 32.5667 107.534 32.74C106.934 32.9133 106.267 33 105.534 33H99.1535ZM102.354 30.16H105.414C105.787 30.16 106.1 30.1 106.354 29.98C106.62 29.86 106.827 29.6867 106.974 29.46C107.12 29.22 107.194 28.9333 107.194 28.6C107.194 28.2933 107.114 28.0333 106.954 27.82C106.807 27.6067 106.594 27.4467 106.314 27.34C106.034 27.22 105.7 27.16 105.314 27.16H102.354V30.16ZM102.354 24.62H104.854C105.2 24.62 105.494 24.5667 105.734 24.46C105.987 24.34 106.174 24.18 106.294 23.98C106.427 23.7667 106.494 23.5133 106.494 23.22C106.494 22.7933 106.347 22.46 106.054 22.22C105.76 21.9667 105.32 21.84 104.734 21.84H102.354V24.62ZM112.837 33V22.38H115.877L116.017 25.84L115.417 25.18C115.577 24.6067 115.837 24.0933 116.197 23.64C116.57 23.1867 117.004 22.8267 117.497 22.56C117.99 22.2933 118.517 22.16 119.077 22.16C119.317 22.16 119.537 22.18 119.737 22.22C119.95 22.26 120.144 22.3067 120.317 22.36L119.437 25.9C119.29 25.8067 119.09 25.7333 118.837 25.68C118.597 25.6133 118.344 25.58 118.077 25.58C117.784 25.58 117.51 25.6333 117.257 25.74C117.004 25.8333 116.79 25.9733 116.617 26.16C116.444 26.3467 116.304 26.5667 116.197 26.82C116.104 27.0733 116.057 27.36 116.057 27.68V33H112.837ZM122.119 33V22.38H125.319V33H122.119ZM123.719 20.28C123.119 20.28 122.645 20.14 122.299 19.86C121.965 19.5667 121.799 19.1533 121.799 18.62C121.799 18.14 121.972 17.7467 122.319 17.44C122.665 17.1333 123.132 16.98 123.719 16.98C124.319 16.98 124.785 17.1267 125.119 17.42C125.452 17.7 125.619 18.1 125.619 18.62C125.619 19.1133 125.445 19.5133 125.099 19.82C124.765 20.1267 124.305 20.28 123.719 20.28ZM132.345 33.22C131.425 33.22 130.605 32.9867 129.885 32.52C129.179 32.04 128.619 31.3867 128.205 30.56C127.792 29.72 127.585 28.7667 127.585 27.7C127.585 26.6333 127.792 25.6867 128.205 24.86C128.619 24.02 129.185 23.36 129.905 22.88C130.625 22.4 131.452 22.16 132.385 22.16C132.865 22.16 133.325 22.2333 133.765 22.38C134.205 22.5267 134.605 22.7267 134.965 22.98C135.325 23.2333 135.619 23.5267 135.845 23.86C136.072 24.18 136.205 24.5133 136.245 24.86L135.485 25.04V18.2H138.705V33H135.725L135.545 30.58L136.185 30.68C136.145 31.0133 136.012 31.3333 135.785 31.64C135.572 31.9467 135.292 32.22 134.945 32.46C134.599 32.6867 134.199 32.8667 133.745 33C133.305 33.1467 132.839 33.22 132.345 33.22ZM133.165 30.56C133.659 30.56 134.085 30.44 134.445 30.2C134.805 29.96 135.079 29.6267 135.265 29.2C135.465 28.7733 135.565 28.2733 135.565 27.7C135.565 27.1133 135.465 26.6067 135.265 26.18C135.079 25.7533 134.805 25.42 134.445 25.18C134.085 24.94 133.659 24.82 133.165 24.82C132.672 24.82 132.245 24.94 131.885 25.18C131.539 25.42 131.265 25.7533 131.065 26.18C130.865 26.6067 130.765 27.1133 130.765 27.7C130.765 28.2733 130.865 28.7733 131.065 29.2C131.265 29.6267 131.539 29.96 131.885 30.2C132.245 30.44 132.672 30.56 133.165 30.56ZM146.271 37.6C145.405 37.6 144.538 37.4733 143.671 37.22C142.818 36.9667 142.125 36.64 141.591 36.24L142.711 34C142.991 34.1867 143.298 34.3467 143.631 34.48C143.978 34.6267 144.338 34.74 144.711 34.82C145.085 34.9 145.465 34.94 145.851 34.94C146.531 34.94 147.085 34.84 147.511 34.64C147.938 34.44 148.258 34.1333 148.471 33.72C148.685 33.32 148.791 32.8133 148.791 32.2V30.42L149.411 30.52C149.318 30.96 149.085 31.36 148.711 31.72C148.351 32.08 147.905 32.3733 147.371 32.6C146.838 32.8133 146.271 32.92 145.671 32.92C144.711 32.92 143.851 32.7 143.091 32.26C142.345 31.8067 141.751 31.1867 141.311 30.4C140.885 29.6 140.671 28.68 140.671 27.64C140.671 26.5733 140.885 25.6333 141.311 24.82C141.738 23.9933 142.325 23.3467 143.071 22.88C143.818 22.4 144.658 22.16 145.591 22.16C145.991 22.16 146.371 22.2067 146.731 22.3C147.105 22.3933 147.445 22.52 147.751 22.68C148.071 22.8267 148.351 23.0067 148.591 23.22C148.845 23.42 149.045 23.64 149.191 23.88C149.351 24.12 149.458 24.3667 149.511 24.62L148.851 24.78L148.971 22.38H152.011V32.14C152.011 33.0067 151.878 33.7733 151.611 34.44C151.358 35.12 150.978 35.6933 150.471 36.16C149.978 36.64 149.378 37 148.671 37.24C147.965 37.48 147.165 37.6 146.271 37.6ZM146.351 30.44C146.871 30.44 147.318 30.3267 147.691 30.1C148.078 29.86 148.371 29.5333 148.571 29.12C148.785 28.7067 148.891 28.22 148.891 27.66C148.891 27.1 148.785 26.6133 148.571 26.2C148.371 25.7733 148.078 25.4467 147.691 25.22C147.318 24.98 146.871 24.86 146.351 24.86C145.845 24.86 145.405 24.98 145.031 25.22C144.658 25.4467 144.365 25.7733 144.151 26.2C143.951 26.6133 143.851 27.1 143.851 27.66C143.851 28.22 143.951 28.7067 144.151 29.12C144.365 29.5333 144.658 29.86 145.031 30.1C145.405 30.3267 145.845 30.44 146.351 30.44ZM159.85 33.2C158.677 33.2 157.657 32.9667 156.79 32.5C155.923 32.02 155.25 31.3733 154.77 30.56C154.29 29.7333 154.05 28.7933 154.05 27.74C154.05 26.9267 154.183 26.18 154.45 25.5C154.717 24.82 155.09 24.2333 155.57 23.74C156.05 23.2333 156.617 22.8467 157.27 22.58C157.937 22.3 158.663 22.16 159.45 22.16C160.197 22.16 160.877 22.2933 161.49 22.56C162.117 22.8267 162.657 23.2 163.11 23.68C163.563 24.16 163.91 24.7267 164.15 25.38C164.39 26.0333 164.497 26.7467 164.47 27.52L164.45 28.38H155.99L155.53 26.58H161.85L161.51 26.96V26.56C161.483 26.2267 161.377 25.9333 161.19 25.68C161.017 25.4133 160.783 25.2067 160.49 25.06C160.197 24.9133 159.863 24.84 159.49 24.84C158.97 24.84 158.523 24.9467 158.15 25.16C157.79 25.36 157.517 25.66 157.33 26.06C157.143 26.4467 157.05 26.9267 157.05 27.5C157.05 28.0867 157.17 28.6 157.41 29.04C157.663 29.4667 158.023 29.8 158.49 30.04C158.97 30.28 159.537 30.4 160.19 30.4C160.643 30.4 161.043 30.3333 161.39 30.2C161.75 30.0667 162.137 29.84 162.55 29.52L164.05 31.64C163.637 32 163.197 32.2933 162.73 32.52C162.263 32.7467 161.783 32.9133 161.29 33.02C160.81 33.14 160.33 33.2 159.85 33.2Z" fill="#3E3EFA"/>
<path d="M22.608 32.0308C14.9766 34.4581 6.82238 30.2394 4.39506 22.608C1.96773 14.9766 6.18647 6.82238 13.8179 4.39506C21.4493 1.96773 29.6035 6.18647 32.0308 13.8179C7.81767 15.2232 30.2394 29.6035 22.608 32.0308Z" fill="#3E3EFA"/>
</svg>
