<svg width="40" height="40" viewBox="0 0 40 40" fill="none" xmlns="http://www.w3.org/2000/svg">
<path d="M18.8908 1.55071C19.1998 0.422328 20.8002 0.422327 21.1092 1.55071L24.6635 14.5311C24.7708 14.923 25.077 15.2292 25.4689 15.3365L38.4493 18.8908C39.5777 19.1998 39.5777 20.8002 38.4493 21.1092L25.4689 24.6635C25.077 24.7708 24.7708 25.077 24.6635 25.4689L21.1092 38.4493C20.8002 39.5777 19.1998 39.5777 18.8908 38.4493L15.3365 25.4689C15.2292 25.077 14.923 24.7708 14.5311 24.6635L1.55071 21.1092C0.422328 20.8002 0.422327 19.1998 1.55071 18.8908L14.5311 15.3365C14.923 15.2292 15.2292 14.923 15.3365 14.5311L18.8908 1.55071Z" fill="#3E3EFA"/>
</svg>
